<svg width="58" height="20" xmlns="http://www.w3.org/2000/svg"><path d="M7.784 17.356c2.713 0 4.81-2.103 4.81-5.214V.033h2.937v19.621h-2.909v-1.822c-1.314 1.374-3.132 2.158-5.174 2.158-4.195 0-7.412-3.055-7.412-7.678V.036h2.936v12.106c0 3.167 2.07 5.214 4.811 5.214M17.713.034h2.825V7.18A7.045 7.045 0 0 1 25.6 5.05a7.445 7.445 0 0 1 7.495 7.484c0 4.12-3.3 7.455-7.495 7.455a7.11 7.11 0 0 1-5.093-2.13v1.793H17.71l.004-19.62zm7.691 17.462c2.686 0 4.895-2.215 4.895-4.961 0-2.775-2.21-4.962-4.895-4.962-2.713 0-4.922 2.187-4.922 4.962 0 2.746 2.181 4.961 4.922 4.961zM41.543 5.079c4.11 0 7.132 3.167 7.132 7.428v.925H37.069c.392 2.326 2.322 4.064 4.726 4.064 1.651 0 3.049-.673 4.111-2.102l2.042 1.513c-1.427 1.906-3.552 3.055-6.153 3.055-4.28 0-7.58-3.195-7.58-7.455 0-4.037 3.16-7.428 7.328-7.428m-4.42 6.11h8.7c-.476-2.186-2.238-3.644-4.336-3.644-2.097 0-3.86 1.458-4.363 3.644m19.13-3.307c-1.846 0-3.188 1.43-3.188 3.644v8.128H50.24V5.36h2.798v1.767c.7-1.149 1.846-1.878 3.413-1.878h.978v2.635l-1.176-.001z"/></svg>